<svg version="1.1" id="Calque_1" xmlns="http://www.w3.org/2000/svg" xmlns:xlink="http://www.w3.org/1999/xlink" x="0px" y="0px" width="186.831px" height="72.031px" viewBox="0 0 186.831 72.031" enable-background="new 0 0 186.831 72.031" xml:space="preserve">
<g>
	<path fill="#254A94" d="M29.733,12.681c-5.371,0-10.415,1.432-14.769,3.935V0.039H0v39.819h15.19
		c1.215-6.929,7.271-12.213,14.542-12.213c7.272,0,13.329,5.284,14.543,12.213h15.073C58.048,24.657,45.266,12.681,29.733,12.681"></path>
	<path fill="#254A94" d="M77.3,6.009c0.885-1.725,2.54-2.699,4.535-2.699c2.177,0,3.832,1.112,4.535,2.835h2.722
		c-0.816-3.243-3.469-5.239-7.28-5.239c-1.564,0-2.925,0.339-4.104,1.021c-2.244,1.315-3.584,3.651-3.718,6.576h2.652
		C76.688,7.551,76.915,6.735,77.3,6.009"></path>
	<path fill="#254A94" d="M89.41,8.366h-8.05v1.906h5.874c-0.385,2.881-2.494,4.626-5.149,4.626c-1.088,0-2.041-0.227-2.856-0.703
		c-1.406-0.771-2.313-2.2-2.54-4.127h-2.676c0.112,1.179,0.408,2.245,0.929,3.197c1.293,2.473,3.788,3.946,6.895,3.946
		c1.383,0,2.631-0.294,3.719-0.861c2.155-1.157,3.492-3.152,3.855-5.511V8.366z"></path>
	<path fill="#254A94" d="M94.48,10.726c0-2.54,1.495-3.56,3.765-3.56h0.771V4.354c-2.063,0-3.698,1.021-4.536,2.653V4.557h-2.584
		v12.495h2.584V10.726z"></path>
	<path fill="#254A94" d="M110.064,7.46c-0.657-1.837-2.336-3.062-4.604-3.062c-1.089,0-2.063,0.25-2.902,0.771
		c-1.723,1.021-2.744,3.017-2.744,5.625c0,1.314,0.25,2.45,0.726,3.424c0.974,1.929,2.744,2.993,4.921,2.993
		c2.268,0,3.946-1.225,4.604-3.061v2.902h2.586V4.557h-2.586V7.46z M109.566,12.972c-0.658,1.246-1.859,1.948-3.312,1.948
		c-2.29,0-3.788-1.563-3.788-4.126c0-2.562,1.498-4.128,3.788-4.128c0.727,0,1.385,0.16,1.95,0.499
		c1.158,0.68,1.859,1.995,1.859,3.629C110.064,11.633,109.906,12.359,109.566,12.972"></path>
	<path fill="#254A94" d="M122.509,4.354c-2.063,0-3.742,1.066-4.401,2.949V4.557h-2.584v12.496h2.584v-6.644
		c0-2.54,1.34-3.879,3.402-3.879c1.996,0,3.222,1.27,3.222,3.515v7.008h2.586V9.775C127.318,6.303,125.412,4.354,122.509,4.354"></path>
	<path fill="#254A94" d="M139.828,5.69c-1.09-0.839-2.475-1.336-3.947-1.336c-3.312,0-6.032,2.449-6.418,5.646h2.517
		c0.386-1.836,1.995-3.197,3.901-3.174c1.905,0.022,3.516,1.361,3.9,3.174h2.563V0h-2.517V5.69z"></path>
	<path fill="#254A94" d="M135.881,14.74c-1.906,0-3.494-1.338-3.902-3.175h-2.517c0.407,3.197,3.106,5.623,6.419,5.623
		c3.173,0,6.076-2.402,6.394-5.623h-2.516C139.463,13.289,137.808,14.74,135.881,14.74"></path>
	<path fill="#254A94" d="M82.833,31.617c1.723-0.432,2.879-1.702,2.879-3.72c0-2.518-1.769-4.037-4.966-4.037h-6.259v8.776h5.829
		c1.973,0,3.107,0.954,3.107,2.563c0,1.612-1.112,2.541-3.085,2.541h-3.266v-3.562h-2.584v5.693h6.372
		c3.379,0,5.217-1.679,5.217-4.332C86.077,33.612,84.761,32.002,82.833,31.617 M80.271,30.754h-3.198V25.97h3.107
		c1.928,0,2.88,0.907,2.88,2.381C83.06,29.87,82.084,30.754,80.271,30.754"></path>
	<path fill="#254A94" d="M93.914,27.218c-1.202,0-2.268,0.249-3.197,0.771c-1.86,1.021-2.993,3.017-2.993,5.625
		c0,1.314,0.271,2.45,0.793,3.424c1.066,1.928,2.971,2.993,5.397,2.993c1.044,0,1.996-0.204,2.835-0.588
		c1.564-0.704,2.608-1.973,3.016-3.539h-2.766c-0.432,1.224-1.634,2.019-3.198,2.019c-1.928,0-3.357-1.156-3.539-3.583h9.594
		c0.067-0.318,0.113-0.885,0.113-1.315c0-1.09-0.251-2.087-0.727-2.972C98.246,28.283,96.364,27.218,93.914,27.218 M90.285,32.66
		c0.114-1.066,0.476-1.882,1.088-2.449c0.681-0.636,1.543-0.93,2.54-0.93c0.635,0,1.225,0.112,1.77,0.385
		c0.544,0.248,0.952,0.681,1.246,1.224c0.295,0.477,0.431,1.089,0.431,1.77H90.285z"></path>
	<path fill="#254A94" d="M107.072,32.773c-0.702-0.158-1.246-0.316-1.633-0.453c-0.771-0.272-1.361-0.727-1.361-1.52
		c0-1.067,0.75-1.724,2.042-1.724c1.565,0,2.562,0.908,2.766,2.269h2.45c-0.386-2.518-2.223-4.127-5.148-4.127
		c-2.812,0-4.49,1.452-4.49,3.561c0,0.815,0.205,1.452,0.614,1.928c0.792,0.952,1.836,1.248,3.65,1.678
		c0.702,0.159,1.271,0.295,1.679,0.431c0.815,0.294,1.428,0.77,1.428,1.655c0,1-0.749,1.723-1.996,1.723
		c-1.724,0-2.835-0.929-2.994-2.29h-2.517c0.386,2.608,2.403,4.127,5.511,4.127c2.698,0,4.399-1.427,4.399-3.515
		c0-0.839-0.204-1.518-0.611-2.018C110.021,33.521,108.954,33.205,107.072,32.773"></path>
	<path fill="#254A94" d="M123.355,30.279c-0.657-1.836-2.335-3.061-4.604-3.061c-1.088,0-2.062,0.249-2.902,0.771
		c-1.723,1.021-2.743,3.017-2.743,5.625c0,1.314,0.249,2.45,0.726,3.424c0.976,1.929,2.743,2.993,4.92,2.993
		c2.27,0,3.947-1.225,4.604-3.061v2.904h2.586V27.376h-2.586V30.279z M122.856,35.791c-0.658,1.246-1.86,1.948-3.312,1.948
		c-2.29,0-3.787-1.563-3.787-4.126c0-2.562,1.497-4.128,3.787-4.128c0.727,0,1.385,0.16,1.951,0.5
		c1.157,0.679,1.859,1.995,1.859,3.628C123.355,34.451,123.196,35.178,122.856,35.791"></path>
	<path fill="#254A94" d="M135.799,27.172c-2.064,0-3.742,1.066-4.401,2.948v-2.745h-2.585v12.497h2.585v-6.646
		c0-2.54,1.339-3.878,3.402-3.878c1.996,0,3.22,1.269,3.22,3.514v7.009h2.586v-7.28C140.606,29.122,138.701,27.172,135.799,27.172"></path>
	<path fill="#254A94" d="M148.855,29.463c1.746,0,2.994,0.952,3.289,2.516h2.743c-0.521-2.924-2.743-4.761-5.988-4.761
		c-1.2,0-2.266,0.25-3.196,0.77c-1.859,1.021-2.994,3.018-2.994,5.625c0,1.315,0.273,2.451,0.795,3.424
		c1.066,1.929,2.973,2.993,5.396,2.993c3.245,0,5.468-1.858,5.988-4.785h-2.743c-0.295,1.565-1.543,2.54-3.289,2.54
		c-1.996,0-3.491-1.451-3.491-4.172C145.364,30.891,146.859,29.463,148.855,29.463"></path>
	<path fill="#254A94" d="M149.786,41.119h-2.042v1.542h1.973c0.477,0,0.771,0.361,0.771,0.84c0,0.476-0.294,0.837-0.771,0.837
		h-3.038v1.542h3.107c1.313,0,2.381-1.064,2.381-2.379C152.167,42.184,151.099,41.119,149.786,41.119"></path>
	<path fill="#254A94" d="M164.986,36.923c-0.613,0.409-1.383,0.657-2.2,0.657c-1.564,0-2.925-0.86-3.605-2.153
		c-0.181-0.341-0.295-0.703-0.363-1.043h-2.539c0.045,0.25,0.091,0.477,0.159,0.726c0.68,2.767,3.173,4.829,6.19,4.898l0.158,0.022
		c3.333,0,6.101-2.471,6.509-5.646h-2.541C166.55,35.45,165.894,36.357,164.986,36.923"></path>
	<path fill="#254A94" d="M162.786,27.081c-3.377,0-6.146,2.518-6.508,5.737h2.518c0.34-1.882,1.996-3.31,3.99-3.31
		c1.997,0,3.651,1.428,4.015,3.31h2.494C168.932,29.599,166.165,27.081,162.786,27.081"></path>
	<path fill="#254A94" d="M178.426,27.172c-2.063,0-3.744,1.066-4.401,2.948v-2.745h-2.583v12.497h2.583v-6.646
		c0-2.54,1.339-3.878,3.403-3.878c1.996,0,3.22,1.269,3.22,3.514v7.009h2.585v-7.28C183.233,29.122,181.328,27.172,178.426,27.172"></path>
	<path fill="#00B2EB" d="M29.691,57.065c-7.502,0-13.711-5.623-14.644-12.875H0.025c0.98,15.515,13.908,27.841,29.666,27.841
		c15.87,0,28.686-12.326,29.667-27.841H44.334C43.402,51.442,37.194,57.065,29.691,57.065"></path>
	<polygon fill="#00B2EB" points="82.836,61.667 77.62,49.076 74.488,49.076 74.488,64.844 77.074,64.844 77.074,53.024 
		81.657,64.844 83.926,64.844 88.486,53.024 88.486,64.844 91.095,64.844 91.095,49.076 87.964,49.076 	"></polygon>
	<polygon fill="#00B2EB" points="103.384,46.784 98.371,49.552 98.371,51.366 103.384,48.804 	"></polygon>
	<path fill="#00B2EB" d="M103.055,52.945c-0.916-0.507-1.985-0.762-3.212-0.762c-1.209,0-2.278,0.257-3.208,0.772
		c-0.931,0.512-1.66,1.255-2.19,2.222c-0.527,0.969-0.793,2.104-0.793,3.404c0,1.314,0.266,2.456,0.793,3.426
		c0.53,0.967,1.26,1.708,2.19,2.224c0.93,0.513,1.999,0.771,3.208,0.771c1.046,0,1.99-0.193,2.837-0.579
		c0.848-0.385,1.536-0.918,2.065-1.6c0.529-0.68,0.876-1.458,1.043-2.336h-2.769c-0.136,0.726-0.502,1.309-1.099,1.747
		c-0.599,0.439-1.328,0.658-2.191,0.658c-0.982,0-1.806-0.31-2.472-0.931c-0.666-0.62-1.021-1.572-1.065-2.859h9.619
		c0.06-0.317,0.088-0.688,0.088-1.111c0-1.087-0.244-2.074-0.735-2.958C104.674,54.147,103.969,53.451,103.055,52.945
		 M96.193,57.925c0.06-1.212,0.431-2.126,1.111-2.747c0.68-0.619,1.527-0.93,2.539-0.93c0.637,0,1.223,0.134,1.76,0.397
		c0.536,0.265,0.96,0.674,1.271,1.225c0.31,0.553,0.45,1.236,0.419,2.055H96.193z"></path>
	<path fill="#00B2EB" d="M111.771,62.19c-0.265-0.273-0.398-0.765-0.398-1.476v-6.172h3.02v-2.201h-3.02v-3.108h-2.606v3.108h-1.793
		v2.201h1.793v6.126c0,1.497,0.343,2.567,1.03,3.21c0.689,0.643,1.697,0.965,3.029,0.965h1.588v-2.245h-1.247
		C112.5,62.599,112.035,62.463,111.771,62.19"></path>
	<path fill="#00B2EB" d="M119.137,54.793v-2.451h-2.586v12.502h2.586v-6.33c0-1.271,0.343-2.182,1.033-2.733
		c0.687-0.551,1.599-0.827,2.731-0.827h0.773v-2.814c-1.03,0-1.938,0.239-2.725,0.714C120.165,53.33,119.559,53.977,119.137,54.793"></path>
	<path fill="#00B2EB" d="M134.386,52.956c-0.969-0.516-2.057-0.772-3.269-0.772c-1.209,0-2.293,0.257-3.254,0.772
		c-0.961,0.513-1.718,1.255-2.27,2.222c-0.553,0.969-0.828,2.104-0.828,3.404s0.275,2.438,0.828,3.414
		c0.552,0.977,1.309,1.72,2.27,2.235c0.961,0.514,2.045,0.77,3.254,0.77c1.212,0,2.3-0.256,3.269-0.77
		c0.967-0.516,1.724-1.257,2.268-2.224c0.546-0.969,0.816-2.111,0.816-3.426c0-1.3-0.271-2.436-0.816-3.404
		C136.11,54.211,135.353,53.469,134.386,52.956 M134.306,60.896c-0.34,0.622-0.791,1.082-1.35,1.385
		c-0.56,0.303-1.173,0.454-1.839,0.454c-0.664,0-1.277-0.151-1.836-0.454c-0.561-0.303-1.01-0.763-1.35-1.385
		c-0.341-0.62-0.513-1.391-0.513-2.313c0-0.908,0.172-1.675,0.513-2.304c0.34-0.627,0.789-1.092,1.35-1.396
		c0.559-0.302,1.172-0.453,1.836-0.453c0.666,0,1.279,0.151,1.839,0.453c0.559,0.304,1.01,0.769,1.35,1.396
		c0.34,0.629,0.511,1.396,0.511,2.304C134.817,59.505,134.646,60.275,134.306,60.896"></path>
	<path fill="#00B2EB" d="M149.936,52.956c-0.854-0.516-1.825-0.772-2.914-0.772c-1.136,0-2.103,0.281-2.905,0.84
		c-0.801,0.56-1.36,1.301-1.678,2.224v-2.905h-2.586v18.444h2.586v-8.847c0.317,0.923,0.877,1.666,1.678,2.224
		c0.803,0.559,1.77,0.838,2.905,0.838c1.089,0,2.061-0.256,2.914-0.77c0.854-0.516,1.523-1.257,2.009-2.224
		c0.482-0.969,0.726-2.111,0.726-3.426c0-1.3-0.243-2.436-0.726-3.404C151.459,54.211,150.791,53.469,149.936,52.956 M148.997,61.61
		c-0.697,0.733-1.619,1.101-2.77,1.101c-0.725,0-1.375-0.17-1.95-0.511c-0.574-0.341-1.03-0.819-1.361-1.44
		c-0.334-0.62-0.499-1.345-0.499-2.178c0-0.818,0.165-1.539,0.499-2.166c0.331-0.626,0.787-1.112,1.361-1.453
		c0.575-0.34,1.226-0.51,1.95-0.51c1.15,0,2.072,0.371,2.77,1.111c0.694,0.742,1.043,1.745,1.043,3.018
		C150.04,59.867,149.691,60.878,148.997,61.61"></path>
	<path fill="#00B2EB" d="M164.083,52.956c-0.968-0.516-2.057-0.772-3.267-0.772c-1.211,0-2.295,0.257-3.256,0.772
		c-0.961,0.513-1.717,1.255-2.268,2.222c-0.552,0.969-0.829,2.104-0.829,3.404s0.277,2.438,0.829,3.414
		c0.551,0.977,1.307,1.72,2.268,2.235c0.961,0.514,2.045,0.77,3.256,0.77c1.21,0,2.299-0.256,3.267-0.77
		c0.968-0.516,1.724-1.257,2.27-2.224c0.544-0.969,0.816-2.111,0.816-3.426c0-1.3-0.272-2.436-0.816-3.404
		C165.807,54.211,165.051,53.469,164.083,52.956 M164.005,60.896c-0.341,0.622-0.791,1.082-1.351,1.385s-1.173,0.454-1.838,0.454
		s-1.278-0.151-1.837-0.454c-0.561-0.303-1.011-0.763-1.351-1.385c-0.34-0.62-0.511-1.391-0.511-2.313
		c0-0.908,0.171-1.675,0.511-2.304c0.34-0.627,0.79-1.092,1.351-1.396c0.559-0.302,1.172-0.453,1.837-0.453s1.278,0.151,1.838,0.453
		c0.56,0.304,1.01,0.769,1.351,1.396c0.339,0.629,0.51,1.396,0.51,2.304C164.515,59.505,164.344,60.275,164.005,60.896"></path>
	<rect x="169.577" y="48.055" fill="#00B2EB" width="2.586" height="16.789"></rect>
	<path fill="#00B2EB" d="M186.831,57.991c0-1.087-0.244-2.074-0.737-2.958c-0.49-0.886-1.194-1.582-2.109-2.088
		c-0.914-0.507-1.983-0.762-3.21-0.762c-1.209,0-2.28,0.257-3.21,0.772c-0.929,0.512-1.66,1.255-2.189,2.222
		c-0.529,0.969-0.795,2.104-0.795,3.404c0,1.314,0.266,2.456,0.795,3.426c0.529,0.967,1.261,1.708,2.189,2.224
		c0.93,0.513,2.001,0.771,3.21,0.771c1.044,0,1.989-0.193,2.837-0.579c0.847-0.385,1.534-0.918,2.064-1.6
		c0.528-0.68,0.877-1.458,1.043-2.336h-2.768c-0.136,0.726-0.505,1.309-1.1,1.747c-0.6,0.439-1.328,0.658-2.191,0.658
		c-0.983,0-1.806-0.31-2.471-0.931c-0.666-0.62-1.021-1.572-1.067-2.859h9.618C186.802,58.785,186.831,58.414,186.831,57.991
		 M177.122,57.925c0.061-1.212,0.431-2.126,1.112-2.747c0.681-0.619,1.526-0.93,2.54-0.93c0.635,0,1.221,0.134,1.759,0.397
		c0.537,0.265,0.96,0.674,1.271,1.225c0.31,0.553,0.45,1.236,0.42,2.055H177.122z"></path>
</g>
</svg>