<?xml version="1.0" encoding="UTF-8" standalone="no"?>
<!-- Created with Inkscape (http://www.inkscape.org/) -->

<svg
   version="1.1"
   id="svg2"
   xml:space="preserve"
   width="2666.6667"
   height="2666.6667"
   viewBox="0 0 2666.6667 2666.6667"
   sodipodi:docname="logo.ai"
   xmlns:inkscape="http://www.inkscape.org/namespaces/inkscape"
   xmlns:sodipodi="http://sodipodi.sourceforge.net/DTD/sodipodi-0.dtd"
   xmlns="http://www.w3.org/2000/svg"
   xmlns:svg="http://www.w3.org/2000/svg"><defs
     id="defs6"><clipPath
       clipPathUnits="userSpaceOnUse"
       id="clipPath16"><path
         d="M 0,2000 H 2000 V 0 H 0 Z"
         id="path14" /></clipPath></defs><sodipodi:namedview
     id="namedview4"
     pagecolor="#ffffff"
     bordercolor="#666666"
     borderopacity="1.0"
     inkscape:pageshadow="2"
     inkscape:pageopacity="0.0"
     inkscape:pagecheckerboard="0" /><g
     id="g8"
     inkscape:groupmode="layer"
     inkscape:label="logo"
     transform="matrix(1.3333333,0,0,-1.3333333,0,2666.6667)"><g
       id="g10"><g
         id="g12"
         clip-path="url(#clipPath16)"><g
           id="g18"
           transform="translate(1042.0752,1905)"><path
             d="m 0,0 c -127.917,-477.342 -356.579,-1330.836 -484.448,-1808 h -260.255 c 127.917,477.342 356.578,1330.836 484.448,1808 z"
             style="fill:#000000;fill-opacity:1;fill-rule:nonzero;stroke:none"
             id="path20" /></g><g
           id="g22"
           transform="translate(1441.6523,97)"><path
             d="m 0,0 h -361.29 c -56.861,55.092 -261.26,253.126 -316.12,306.258 1.723,41.546 102.81,202.641 118.4,235.31 C -399.516,387.046 -160.675,155.667 0,0"
             style="fill:#630000;fill-opacity:1;fill-rule:nonzero;stroke:none"
             id="path24" /></g><g
           id="g26"
           transform="translate(1701.8887,1054.1377)"><path
             d="m 0,0 -69.497,-259.424 c -195.59,139.97 -445.924,319.071 -640.477,458.304 l 67.969,253.642 1.547,5.743 C -451.436,323.006 -204.984,146.644 -16.107,11.505 h 0.018 z"
             style="fill:#000000;fill-opacity:1;fill-rule:nonzero;stroke:none"
             id="path28" /></g><g
           id="g30"
           transform="translate(1701.8887,1054.1377)"><path
             d="M 0,0 C -3.033,-11.312 -76.991,-287.447 -76.961,-287.211 -341.892,-399.312 -673.456,-539.557 -937.337,-651.17 l -0.309,0.29 c 16.905,63.07 64.916,242.282 82.355,307.36 256.854,108.632 581.841,246.163 839.202,355.025 z"
             style="fill:#000000;fill-opacity:1;fill-rule:nonzero;stroke:none"
             id="path32" /></g></g></g></g></svg>
